<?xml version="1.0" encoding="utf-8"?>
<!-- Generator: Adobe Illustrator 16.0.3, SVG Export Plug-In . SVG Version: 6.00 Build 0)  -->
<!DOCTYPE svg PUBLIC "-//W3C//DTD SVG 1.1//EN" "http://www.w3.org/Graphics/SVG/1.1/DTD/svg11.dtd">
<svg version="1.1" id="Capa_1" xmlns="http://www.w3.org/2000/svg" xmlns:xlink="http://www.w3.org/1999/xlink" x="0px" y="0px"
	 width="33.333px" height="34.666px" viewBox="306.14 826.501 33.333 34.666" enable-background="new 306.14 826.501 33.333 34.666"
	 xml:space="preserve">
<g id="Capa_1_1_" display="none">
	
		<image display="inline" overflow="visible" enable-background="new    " width="200" height="200" xlink:href="3784D78A.jpeg"  transform="matrix(1 0 0 1 206 12.999)">
	</image>
</g>
<g id="Capa_2" display="none">
</g>
<g id="Capa_2_copia">
	<g>
		<path fill="#FFFFFF" d="M306.945,842.807c0,0-0.359-5.406,0.359-5.406s16.464,0,16.464,0v5.406H306.945z"/>
		<path fill="#FFFFFF" d="M320.894,837.527c0,0,5.378-1.322,5.168,2.756c-0.358,3.59-5.433,2.417-5.433,2.417"/>
		<path fill="#FFFFFF" d="M306.945,851.489c0,0-0.359-5.406,0.359-5.406s16.464,0,16.464,0v5.406H306.945z"/>
		<path fill="#FFFFFF" d="M320.894,846.21c0,0,5.378-1.322,5.168,2.756c-0.358,3.59-5.433,2.418-5.433,2.418"/>
		<path fill="#FFFFFF" d="M310.836,834.015h12.932c0,0,3.438,1.116,4.311,1.856c0.604,0.513,1.616,2.621,1.616,2.621v4.313
			l-1.556,1.693c0,0,2.532,3.546,2.335,4.86c-0.236,1.572-2.788,4.329-4.405,4.914c-3.611,1.308-15.531,0.492-15.531,0.492
			l9.968,5.133c0,0,1.752,0.572,2.365,0.6c0.53,0.025,2.095-0.327,2.095-0.327l10.597-5.569c0,0,1.877-1.244,2.335-1.803
			c0.354-0.43,0.958-1.966,0.958-1.966V838.82c0,0-0.444-1.816-0.778-2.349c-0.273-0.436-1.496-1.474-1.496-1.474l-11.375-5.897
			c0,0-1.729-0.6-2.335-0.601c-0.669-0.001-2.574,0.655-2.574,0.655L310.836,834.015z"/>
	</g>
</g>
</svg>
